<svg width="229" height="36" viewBox="0 0 229 36" fill="none" xmlns="http://www.w3.org/2000/svg">
<path d="M14.96 32.4C13.1467 32.4 11.3867 32.2 9.68 31.8C7.97333 31.3733 6.42667 30.6267 5.04 29.56C3.68 28.4933 2.6 27.0133 1.8 25.12C1 23.2267 0.6 20.8 0.6 17.84C0.6 15.0933 1 12.7867 1.8 10.92C2.6 9.05333 3.66667 7.56 5 6.44C6.33333 5.32 7.78667 4.52 9.36 4.04C10.96 3.53333 12.56 3.28 14.16 3.28C15.52 3.28 16.84 3.38666 18.12 3.6C19.4267 3.81333 20.3733 4.05333 20.96 4.32L25.4 7.96L21.8 13.76L14.96 10.24C13.0667 10.24 11.4667 10.8667 10.16 12.12C8.85333 13.3467 8.2 15.2533 8.2 17.84C8.2 19.68 8.52 21.1733 9.16 22.32C9.82667 23.4667 10.7333 24.3067 11.88 24.84C13.0267 25.3733 14.3333 25.64 15.8 25.64C17.3467 25.64 18.6667 25.52 19.76 25.28C20.8533 25.0133 21.8133 24.7067 22.64 24.36C23.4667 23.9867 24.2533 23.6267 25 23.28V30C24.0667 30.5867 22.8267 31.1333 21.28 31.64C19.7333 32.1467 17.6267 32.4 14.96 32.4ZM41.5428 32.4C39.8361 32.4 38.1695 32.2 36.5428 31.8C34.9428 31.3733 33.4895 30.6267 32.1828 29.56C30.9028 28.4933 29.8761 27.0133 29.1028 25.12C28.3561 23.2267 27.9828 20.8 27.9828 17.84C27.9828 14.88 28.3561 12.4533 29.1028 10.56C29.8761 8.66667 30.9028 7.18667 32.1828 6.12C33.4895 5.05333 34.9428 4.32 36.5428 3.92C38.1695 3.49333 39.8361 3.28 41.5428 3.28C43.2495 3.28 44.9028 3.49333 46.5028 3.92C48.1295 4.34667 49.5828 5.09333 50.8628 6.16C52.1695 7.22667 53.1961 8.70667 53.9428 10.6C54.7161 12.4933 55.1028 14.9067 55.1028 17.84C55.1028 20.7733 54.7161 23.1867 53.9428 25.08C53.1961 26.9733 52.1695 28.4533 50.8628 29.52C49.5828 30.5867 48.1295 31.3333 46.5028 31.76C44.9028 32.1867 43.2495 32.4 41.5428 32.4ZM41.5428 25.6C43.5161 25.6 45.0095 25.0133 46.0228 23.84C47.0361 22.6667 47.5428 20.6667 47.5428 17.84C47.5428 15.0133 47.0361 13.0133 46.0228 11.84C45.0095 10.6667 43.5161 10.08 41.5428 10.08C39.5961 10.08 38.1161 10.68 37.1028 11.88C36.0895 13.08 35.5828 15.0667 35.5828 17.84C35.5828 20.6133 36.0895 22.6 37.1028 23.8C38.1161 25 39.5961 25.6 41.5428 25.6ZM59.8953 32V10.12L59.0953 6.12L59.8953 3.68H71.8153C73.7353 3.68 75.5753 3.86667 77.3353 4.24C79.122 4.58667 80.7086 5.25333 82.0953 6.24C83.5086 7.22666 84.6153 8.64 85.4153 10.48C86.242 12.32 86.6553 14.7067 86.6553 17.64C86.6553 20.5733 86.242 22.9867 85.4153 24.88C84.5886 26.7467 83.4686 28.2 82.0553 29.24C80.642 30.28 79.042 31 77.2553 31.4C75.4953 31.8 73.682 32 71.8153 32H59.8953ZM67.1753 25.6H71.8153C74.162 25.6 75.962 24.9867 77.2153 23.76C78.4686 22.5067 79.0953 20.4667 79.0953 17.64C79.0953 14.8133 78.4553 12.8533 77.1753 11.76C75.922 10.64 74.1353 10.08 71.8153 10.08H67.1753V25.6ZM91.4578 32L90.6578 29.6L91.4578 25.6V3.68H111.258L113.258 4.88L110.618 10.48L107.018 10.08H98.6578V14.48H109.418V20.68H104.698L98.6578 20.28V25.6H110.618L115.378 29.44L113.018 32H91.4578ZM121.397 32.4L117.797 28.8L121.397 25.2L124.997 28.8L121.397 32.4ZM129.408 32V19.96L128.608 15.56L129.848 13.12H134.208V14.84L134.568 15.08C134.861 14.8133 135.261 14.5067 135.768 14.16C136.301 13.7867 136.941 13.4533 137.688 13.16C138.434 12.8667 139.274 12.72 140.208 12.72C142.608 12.72 144.408 13.4 145.608 14.76C146.808 16.12 147.408 18.0267 147.408 20.48V25.56L148.248 29.56L147.408 32H141.808V20.32C141.808 19.3067 141.581 18.5333 141.128 18C140.701 17.44 140.021 17.16 139.088 17.16L135.008 17.92V32H129.408ZM160.343 32.4C157.09 32.4 154.703 31.5467 153.183 29.84C151.663 28.1333 150.903 25.7067 150.903 22.56C150.903 19.3867 151.663 16.96 153.183 15.28C154.703 13.5733 157.09 12.72 160.343 12.72C163.703 12.72 166.103 13.5733 167.543 15.28C169.01 16.96 169.743 19.3867 169.743 22.56C169.743 25.7067 169.01 28.1333 167.543 29.84C166.103 31.5467 163.703 32.4 160.343 32.4ZM160.343 28.4C161.436 28.4 162.33 27.9733 163.023 27.12C163.743 26.2667 164.103 24.7467 164.103 22.56C164.103 20.3733 163.743 18.8533 163.023 18C162.33 17.1467 161.436 16.72 160.343 16.72C159.223 16.72 158.303 17.1467 157.583 18C156.89 18.8533 156.543 20.3733 156.543 22.56C156.543 24.7467 156.903 26.2667 157.623 27.12C158.343 27.9733 159.25 28.4 160.343 28.4ZM177.252 32L171.772 18.32L170.972 13.12H176.972L180.372 26.4H181.172L184.612 13.12H191.772L195.172 26.4H195.972L199.412 13.12H205.372L204.572 18.32L199.052 32H191.852L188.572 18.32H187.772L184.452 32H177.252ZM215.468 35.2L216.788 32C216.334 31.5467 215.814 31 215.228 30.36C214.668 29.6933 214.121 28.8267 213.588 27.76C213.054 26.6667 212.614 25.2667 212.268 23.56C211.921 21.8533 211.748 19.7467 211.748 17.24C211.748 14.7067 211.921 12.6533 212.268 11.08C212.641 9.48 213.094 8.21333 213.628 7.28C214.188 6.34666 214.748 5.61333 215.308 5.08C215.868 4.54667 216.361 4.06667 216.788 3.64L215.468 0.439999C215.068 0.439999 214.534 0.586665 213.868 0.879998C213.228 1.17333 212.534 1.68 211.788 2.4C211.041 3.12 210.334 4.12 209.668 5.4C209.001 6.68 208.454 8.29333 208.028 10.24C207.601 12.16 207.388 14.4933 207.388 17.24C207.388 19.9867 207.601 22.3733 208.028 24.4C208.454 26.4 209.001 28.0933 209.668 29.48C210.334 30.8667 211.041 31.9733 211.788 32.8C212.534 33.6533 213.228 34.2667 213.868 34.64C214.534 35.0133 215.068 35.2 215.468 35.2ZM220.504 35.2L219.184 32C219.638 31.5467 220.144 31 220.704 30.36C221.291 29.6933 221.851 28.8267 222.384 27.76C222.918 26.6667 223.358 25.2667 223.704 23.56C224.051 21.8533 224.224 19.7467 224.224 17.24C224.224 14.7067 224.038 12.6533 223.664 11.08C223.318 9.48 222.864 8.21333 222.304 7.28C221.771 6.34666 221.224 5.61333 220.664 5.08C220.104 4.54667 219.611 4.06667 219.184 3.64L220.504 0.439999C220.904 0.439999 221.424 0.586665 222.064 0.879998C222.731 1.17333 223.438 1.68 224.184 2.4C224.931 3.12 225.638 4.12 226.304 5.4C226.971 6.68 227.518 8.29333 227.944 10.24C228.371 12.16 228.584 14.4933 228.584 17.24C228.584 19.9867 228.371 22.3733 227.944 24.4C227.518 26.4 226.971 28.0933 226.304 29.48C225.638 30.8667 224.931 31.9733 224.184 32.8C223.438 33.6533 222.731 34.2667 222.064 34.64C221.424 35.0133 220.904 35.2 220.504 35.2Z" fill="#717171"/>
</svg>
